<svg xmlns="http://www.w3.org/2000/svg" xmlns:xlink="http://www.w3.org/1999/xlink" width="500" zoomAndPan="magnify" viewBox="0 0 375 374.999991" height="500" preserveAspectRatio="xMidYMid meet" version="1.0"><defs><g/><clipPath id="9d0cb478b1"><path d="M 31.390625 12.089844 L 343.246094 12.089844 L 343.246094 331.585938 L 31.390625 331.585938 Z M 31.390625 12.089844 " clip-rule="nonzero"/></clipPath></defs><g clip-path="url(#9d0cb478b1)"><path fill="#fbf5f5" d="M 343.246094 248.484375 C 342.003906 191.402344 321.335938 137.265625 321.335938 137.265625 L 329.835938 136.476562 C 321.996094 104.550781 303.535156 90.539062 303.535156 90.539062 L 311.441406 90.859375 C 303.148438 83.78125 297.109375 78.710938 297.109375 78.710938 C 301.015625 67.664062 306.382812 57.898438 302.195312 41.207031 C 296.019531 16.589844 271.515625 12.089844 271.515625 12.089844 C 255.730469 27.832031 247.207031 46.792969 247.207031 46.792969 C 246.964844 40.683594 243.96875 37.105469 243.96875 37.105469 C 243.269531 42.253906 238.8125 47.875 238.8125 47.875 C 211.191406 46.164062 200.914062 54.339844 187.316406 54.339844 C 173.71875 54.339844 163.441406 46.164062 135.820312 47.875 C 135.820312 47.875 131.363281 42.253906 130.667969 37.105469 C 130.667969 37.105469 127.671875 40.683594 127.425781 46.792969 C 127.425781 46.792969 118.902344 27.832031 103.121094 12.089844 C 103.121094 12.089844 78.617188 16.589844 72.441406 41.207031 C 68.25 57.898438 73.617188 67.664062 77.527344 78.710938 C 77.527344 78.710938 71.488281 83.78125 63.195312 90.859375 L 71.097656 90.539062 C 71.097656 90.539062 52.636719 104.550781 44.800781 136.476562 L 53.296875 137.265625 C 53.296875 137.265625 32.632812 191.402344 31.390625 248.484375 L 50.285156 240.777344 L 37.609375 253.679688 C 37.609375 253.679688 76.039062 269.714844 101.71875 294.464844 L 133.722656 300.683594 C 133.722656 300.683594 137.070312 305.917969 139.417969 319.011719 C 139.417969 319.011719 153.671875 331.585938 187.316406 331.585938 C 220.960938 331.585938 235.214844 319.011719 235.214844 319.011719 C 237.566406 305.917969 240.914062 300.683594 240.914062 300.683594 L 272.917969 294.464844 C 298.597656 269.714844 337.023438 253.679688 337.023438 253.679688 L 324.347656 240.777344 Z M 225.925781 313.824219 C 225.925781 313.824219 213.953125 320.339844 187.316406 320.339844 C 160.679688 320.339844 148.710938 313.824219 148.710938 313.824219 C 148.710938 313.824219 148.570312 310.957031 148.101562 307.113281 C 156.695312 300.140625 177.640625 283.984375 187.316406 283.984375 C 196.996094 283.984375 217.941406 300.140625 226.535156 307.113281 C 226.066406 310.957031 225.925781 313.824219 225.925781 313.824219 Z M 181.5 243.734375 C 181.253906 240.789062 180.308594 236.65625 180.308594 236.65625 L 175.273438 237.8125 C 171.53125 234.671875 167.128906 231.742188 162.640625 230.414062 C 162.640625 230.414062 175.007812 233.613281 187.316406 233.613281 C 199.628906 233.613281 211.996094 230.414062 211.996094 230.414062 C 207.503906 231.742188 203.105469 234.671875 199.359375 237.8125 L 194.328125 236.65625 C 194.328125 236.65625 193.382812 240.789062 193.136719 243.734375 C 190.378906 246.667969 187.316406 248.890625 187.316406 248.890625 C 187.316406 248.890625 184.253906 246.667969 181.5 243.734375 Z M 326.285156 250.316406 C 293.996094 256.234375 269.691406 280.628906 269.691406 280.628906 C 269.902344 260.296875 278.796875 246.226562 278.796875 246.226562 C 299.480469 237.425781 318.230469 222.929688 318.230469 222.929688 C 321.824219 191.867188 306.148438 156.351562 306.148438 156.351562 C 304.667969 146.371094 304.734375 123.234375 304.734375 123.234375 C 298.9375 118.851562 283.980469 104.859375 283.980469 104.859375 L 298.347656 127.496094 C 297.109375 140.175781 298.316406 151.992188 298.316406 151.992188 C 306.625 175.890625 310.976562 215.082031 310.976562 215.082031 C 295.144531 230.074219 274.878906 236.804688 267.660156 239.269531 C 267.238281 237.53125 266.742188 235.78125 266.179688 234.015625 L 272.246094 217.371094 C 272.246094 217.371094 291.597656 210.363281 299.480469 197.828125 C 287.75 176.695312 291.855469 147.660156 291.855469 147.660156 C 291.855469 147.660156 282.90625 166.328125 287.449219 195.761719 L 259.023438 216.835938 C 245.535156 190.042969 223.582031 165.546875 223.582031 165.546875 C 225.800781 163.289062 227.726562 160.996094 229.394531 158.738281 C 252.53125 161.46875 258.152344 143.34375 259.410156 136.917969 C 266.03125 137.964844 271.40625 139.335938 271.40625 139.335938 C 267.324219 163.625 246.839844 167.402344 246.839844 167.402344 C 266 169.449219 274.613281 155.777344 277.425781 149.820312 L 283.027344 159.570312 C 285.074219 132.871094 270.605469 112.253906 270.605469 112.253906 C 274.78125 124.882812 270.085938 132.890625 270.085938 132.890625 C 252.402344 127.695312 238.152344 128.027344 238.152344 128.027344 L 236.347656 117.648438 C 232.976562 134.613281 222.050781 151.484375 215.421875 157.320312 C 211.609375 151.203125 212.144531 142.082031 212.144531 142.082031 C 208.1875 153.039062 209.25 162.035156 209.25 162.035156 C 209.25 162.035156 213.582031 177.421875 221.417969 204.625 C 221.417969 204.625 222.648438 188.894531 220.605469 173.832031 C 234.390625 190.109375 244.769531 209.820312 251.820312 225.859375 C 250.578125 229.847656 245.386719 239.273438 224.070312 239.542969 C 224.070312 239.542969 241.402344 249.777344 255.898438 235.59375 C 257.773438 240.308594 259.285156 244.449219 260.425781 247.738281 C 257.929688 252.042969 248.882812 263.160156 223.753906 258.242188 C 223.753906 258.242188 245.902344 272.351562 260.425781 262.800781 C 259.097656 272.097656 258.09375 280.722656 258.09375 280.722656 C 237.84375 288.269531 219.113281 270.585938 219.113281 270.585938 C 222.5625 281.1875 231.546875 287.746094 236.472656 290.660156 L 229.304688 293.953125 C 214.988281 294.015625 194.699219 275.304688 194.699219 275.304688 L 191.070312 259.269531 C 197.484375 247.878906 208.140625 238.554688 208.140625 238.554688 C 219.429688 233.230469 225.109375 228.691406 225.109375 228.691406 C 223.847656 219.789062 215.558594 207.1875 215.558594 207.1875 C 218.585938 215.539062 217.582031 224.703125 217.582031 224.703125 C 217.582031 224.703125 199.539062 227.449219 187.316406 227.449219 C 175.097656 227.449219 157.054688 224.703125 157.054688 224.703125 C 157.054688 224.703125 156.050781 215.539062 159.078125 207.1875 C 159.078125 207.1875 150.789062 219.789062 149.523438 228.691406 C 149.523438 228.691406 155.203125 233.230469 166.492188 238.554688 C 166.492188 238.554688 177.152344 247.878906 183.566406 259.269531 L 179.933594 275.304688 C 179.933594 275.304688 159.648438 294.015625 145.332031 293.953125 L 138.164062 290.660156 C 143.085938 287.746094 152.074219 281.1875 155.523438 270.585938 C 155.523438 270.585938 136.789062 288.269531 116.542969 280.722656 C 116.542969 280.722656 115.535156 272.097656 114.210938 262.800781 C 128.730469 272.351562 150.882812 258.242188 150.882812 258.242188 C 125.753906 263.160156 116.703125 252.042969 114.210938 247.738281 C 115.351562 244.449219 116.859375 240.308594 118.738281 235.59375 C 133.234375 249.777344 150.566406 239.542969 150.566406 239.542969 C 129.25 239.273438 124.058594 229.847656 122.8125 225.859375 C 129.867188 209.820312 140.246094 190.109375 154.03125 173.832031 C 151.984375 188.894531 153.21875 204.625 153.21875 204.625 C 161.054688 177.421875 165.382812 162.035156 165.382812 162.035156 C 165.382812 162.035156 166.449219 153.039062 162.488281 142.082031 C 162.488281 142.082031 163.027344 151.203125 159.210938 157.320312 C 152.585938 151.484375 141.65625 134.613281 138.289062 117.648438 L 136.480469 128.027344 C 136.480469 128.027344 122.230469 127.695312 104.546875 132.890625 C 104.546875 132.890625 99.851562 124.882812 104.027344 112.253906 C 104.027344 112.253906 89.5625 132.871094 91.609375 159.570312 L 97.207031 149.820312 C 100.019531 155.777344 108.636719 169.449219 127.792969 167.402344 C 127.792969 167.402344 107.3125 163.625 103.226562 139.335938 C 103.226562 139.335938 108.605469 137.964844 115.226562 136.917969 C 116.484375 143.34375 122.101562 161.46875 145.238281 158.738281 C 146.910156 160.996094 148.832031 163.289062 151.054688 165.546875 C 151.054688 165.546875 129.097656 190.042969 115.609375 216.835938 L 87.183594 195.761719 C 91.726562 166.328125 82.777344 147.660156 82.777344 147.660156 C 82.777344 147.660156 86.882812 176.695312 75.15625 197.828125 C 83.035156 210.363281 102.386719 217.371094 102.386719 217.371094 L 108.453125 234.015625 C 107.890625 235.78125 107.398438 237.53125 106.972656 239.269531 C 99.753906 236.804688 79.492188 230.074219 63.65625 215.082031 C 63.65625 215.082031 68.007812 175.890625 76.320312 151.992188 C 76.320312 151.992188 77.527344 140.175781 76.289062 127.496094 L 90.65625 104.859375 C 90.65625 104.859375 75.695312 118.851562 69.902344 123.234375 C 69.902344 123.234375 69.964844 146.371094 68.488281 156.351562 C 68.488281 156.351562 52.8125 191.867188 56.40625 222.929688 C 56.40625 222.929688 75.15625 237.425781 95.839844 246.226562 C 95.839844 246.226562 104.734375 260.296875 104.941406 280.628906 C 104.941406 280.628906 80.640625 256.234375 48.351562 250.316406 L 65.457031 234.203125 L 44.800781 236.832031 C 44.800781 236.832031 49.957031 166.074219 66.59375 129.542969 L 54.578125 129.597656 C 54.578125 129.597656 63.109375 102.257812 92.753906 88.097656 L 84.242188 84.8125 L 99.589844 73.925781 L 86.007812 72.8125 C 86.007812 72.8125 76.847656 61.992188 80.351562 42.796875 C 83.855469 23.597656 100.125 16.699219 100.125 16.699219 C 100.125 16.699219 95.5625 33.75 101.730469 55.8125 L 92.753906 51.023438 L 98.738281 61.605469 C 98.738281 61.605469 93.621094 61.375 87.183594 66.71875 C 87.183594 66.71875 97.300781 66.480469 111.414062 69.816406 C 111.414062 69.816406 104.445312 55.582031 108.714844 33.207031 C 108.714844 33.207031 119.65625 40.980469 124.332031 58.945312 L 148.011719 59.507812 L 139.203125 52.828125 C 139.203125 52.828125 159.660156 63.066406 187.316406 63.066406 C 214.972656 63.066406 235.429688 52.828125 235.429688 52.828125 L 226.625 59.507812 L 250.300781 58.945312 C 254.980469 40.980469 265.917969 33.207031 265.917969 33.207031 C 270.191406 55.582031 263.222656 69.816406 263.222656 69.816406 C 277.335938 66.480469 287.449219 66.71875 287.449219 66.71875 C 281.011719 61.375 275.894531 61.605469 275.894531 61.605469 L 281.882812 51.023438 L 272.90625 55.8125 C 279.070312 33.75 274.507812 16.699219 274.507812 16.699219 C 274.507812 16.699219 290.777344 23.597656 294.28125 42.796875 C 297.785156 61.992188 288.628906 72.8125 288.628906 72.8125 L 275.046875 73.925781 L 290.394531 84.8125 L 281.882812 88.097656 C 311.527344 102.257812 320.058594 129.597656 320.058594 129.597656 L 308.039062 129.542969 C 324.675781 166.074219 329.835938 236.832031 329.835938 236.832031 L 309.179688 234.203125 Z M 233.511719 152.445312 C 234.582031 150.578125 235.480469 148.796875 236.230469 147.140625 C 240.332031 147.109375 247.28125 145.566406 247.761719 135.761719 C 249.867188 135.804688 252.074219 135.976562 254.265625 136.21875 C 250.507812 151.355469 238.53125 152.324219 233.511719 152.445312 Z M 141.121094 152.445312 C 136.101562 152.324219 124.128906 151.355469 120.367188 136.21875 C 122.558594 135.976562 124.769531 135.804688 126.875 135.761719 C 127.355469 145.566406 134.304688 147.109375 138.402344 147.140625 C 139.15625 148.796875 140.050781 150.578125 141.121094 152.445312 " fill-opacity="1" fill-rule="nonzero"/></g><path fill="#fbf5f5" d="M 253.292969 89.886719 C 245.988281 73.558594 225.226562 67.539062 225.226562 67.539062 C 225.226562 67.539062 201.332031 72.5625 187.316406 72.5625 C 173.300781 72.5625 149.410156 67.539062 149.410156 67.539062 C 149.410156 67.539062 128.648438 73.558594 121.339844 89.886719 C 121.339844 89.886719 138.59375 75.746094 150.347656 75.792969 C 150.347656 75.792969 169.066406 84.347656 187.316406 84.347656 C 205.566406 84.347656 224.285156 75.792969 224.285156 75.792969 C 236.042969 75.746094 253.292969 89.886719 253.292969 89.886719 " fill-opacity="1" fill-rule="nonzero"/><path fill="#fbf5f5" d="M 211.496094 102.253906 C 222.738281 112.503906 218.03125 124.707031 218.03125 124.707031 L 194.316406 94.386719 C 203.011719 124.265625 221.664062 141.015625 221.664062 141.015625 C 242.820312 108.0625 211.496094 102.253906 211.496094 102.253906 " fill-opacity="1" fill-rule="nonzero"/><path fill="#fbf5f5" d="M 259.746094 193.625 C 265.792969 183.417969 275.894531 179.691406 275.894531 179.691406 L 274.320312 168.40625 C 259.789062 180.121094 259.746094 193.625 259.746094 193.625 " fill-opacity="1" fill-rule="nonzero"/><path fill="#fbf5f5" d="M 232.605469 84.925781 C 221.113281 90.859375 206.21875 84.222656 206.21875 84.222656 C 215.339844 97.835938 229.488281 92.882812 229.488281 92.882812 C 240.242188 90.070312 255.480469 96.261719 255.480469 96.261719 C 247.054688 87.304688 232.605469 84.925781 232.605469 84.925781 " fill-opacity="1" fill-rule="nonzero"/><path fill="#fbf5f5" d="M 260.964844 93.074219 L 276.8125 107.570312 C 276.8125 107.570312 275.28125 94.535156 260.007812 79.296875 C 260.863281 85.589844 260.964844 93.074219 260.964844 93.074219 " fill-opacity="1" fill-rule="nonzero"/><path fill="#fbf5f5" d="M 163.140625 102.253906 C 163.140625 102.253906 131.816406 108.0625 152.96875 141.015625 C 152.96875 141.015625 171.621094 124.265625 180.320312 94.386719 L 156.605469 124.707031 C 156.605469 124.707031 151.894531 112.503906 163.140625 102.253906 " fill-opacity="1" fill-rule="nonzero"/><path fill="#fbf5f5" d="M 114.886719 193.625 C 114.886719 193.625 114.847656 180.121094 100.316406 168.40625 L 98.738281 179.691406 C 98.738281 179.691406 108.84375 183.417969 114.886719 193.625 " fill-opacity="1" fill-rule="nonzero"/><path fill="#fbf5f5" d="M 168.417969 84.222656 C 168.417969 84.222656 153.523438 90.859375 142.03125 84.925781 C 142.03125 84.925781 127.578125 87.304688 119.15625 96.261719 C 119.15625 96.261719 134.394531 90.070312 145.148438 92.882812 C 145.148438 92.882812 159.292969 97.835938 168.417969 84.222656 " fill-opacity="1" fill-rule="nonzero"/><path fill="#fbf5f5" d="M 113.671875 93.074219 C 113.671875 93.074219 113.773438 85.589844 114.625 79.296875 C 99.355469 94.535156 97.824219 107.570312 97.824219 107.570312 L 113.671875 93.074219 " fill-opacity="1" fill-rule="nonzero"/><path stroke-linecap="butt" transform="matrix(1.107387, 0, 0, 1.107387, 53.474797, 135.45279)" fill="none" stroke-linejoin="miter" d="M 51.424725 33.666263 L 33.494709 33.666263 L 33.494709 81.001081 L 18.365486 81.001081 L 18.365486 33.666263 L 0.60126 33.666263 L 0.60126 21.422492 L 51.424725 21.422492 Z M 104.459899 33.394649 L 73.019759 33.394649 L 73.019759 45.222181 L 101.408657 45.222181 L 101.408657 57.113207 L 73.019759 57.113207 L 73.019759 69.110056 L 105.391145 69.110056 L 105.391145 81.001081 L 57.890536 81.001081 L 57.890536 21.503623 L 104.459899 21.503623 Z M 143.050176 20.985089 C 147.477122 20.985089 151.829992 21.891643 156.105259 23.704751 C 160.376998 25.517859 164.017324 27.958852 167.019182 31.027732 L 158.260529 41.384318 C 156.33807 39.003291 154.027592 37.123161 151.329095 35.740402 C 148.648235 34.357642 145.970902 33.666263 143.300624 33.666263 C 138.609119 33.666263 134.672488 35.324163 131.49073 38.647019 C 128.323082 41.952237 126.739258 46.040549 126.739258 50.908426 C 126.739258 55.889182 128.323082 60.055098 131.49073 63.402646 C 134.672488 66.750193 138.609119 68.425731 143.300624 68.425731 C 145.805112 68.425731 148.397786 67.801373 151.082174 66.556184 C 153.780671 65.310995 156.17228 63.610765 158.260529 61.451967 L 167.10384 70.789121 C 163.879753 74.083757 160.066583 76.725815 155.667855 78.718823 C 151.283238 80.694194 146.909203 81.685406 142.552805 81.685406 C 133.589561 81.685406 126.132537 78.76468 120.181733 72.926754 C 114.234456 67.088828 111.257291 59.804649 111.257291 51.074216 C 111.257291 42.527211 114.287368 35.373547 120.347523 29.616753 C 126.421788 23.863486 133.988163 20.985089 143.050176 20.985089 Z M 228.911777 81.001081 L 213.782554 81.001081 L 213.782554 57.88219 L 189.129223 57.88219 L 189.129223 81.001081 L 174 81.001081 L 174 21.503623 L 189.129223 21.503623 L 189.129223 45.97 L 213.782554 45.97 L 213.782554 21.503623 L 228.911777 21.503623 Z M 228.911777 81.001081 " stroke="#ffffff" stroke-width="8.60625" stroke-opacity="1" stroke-miterlimit="4"/><g fill="#af2929" fill-opacity="1"><g transform="translate(53.474797, 225.151146)"><g><path d="M 56.953125 -52.421875 L 37.078125 -52.421875 L 37.078125 0 L 20.328125 0 L 20.328125 -52.421875 L 0.65625 -52.421875 L 0.65625 -65.984375 L 56.953125 -65.984375 Z M 56.953125 -52.421875 "/></g></g></g><g fill="#af2929" fill-opacity="1"><g transform="translate(110.986978, 225.151146)"><g><path d="M 58.171875 -52.703125 L 23.34375 -52.703125 L 23.34375 -39.625 L 54.78125 -39.625 L 54.78125 -26.453125 L 23.34375 -26.453125 L 23.34375 -13.171875 L 59.203125 -13.171875 L 59.203125 0 L 6.59375 0 L 6.59375 -65.890625 L 58.171875 -65.890625 Z M 58.171875 -52.703125 "/></g></g></g><g fill="#af2929" fill-opacity="1"><g transform="translate(174.429213, 225.151146)"><g><path d="M 37.46875 -66.453125 C 42.351562 -66.453125 47.164062 -65.445312 51.90625 -63.4375 C 56.644531 -61.425781 60.675781 -58.726562 64 -55.34375 L 54.3125 -43.859375 C 52.175781 -46.492188 49.617188 -48.578125 46.640625 -50.109375 C 43.660156 -51.648438 40.695312 -52.421875 37.75 -52.421875 C 32.539062 -52.421875 28.175781 -50.585938 24.65625 -46.921875 C 21.144531 -43.253906 19.390625 -38.71875 19.390625 -33.3125 C 19.390625 -27.789062 21.144531 -23.179688 24.65625 -19.484375 C 28.175781 -15.785156 32.539062 -13.9375 37.75 -13.9375 C 40.507812 -13.9375 43.378906 -14.625 46.359375 -16 C 49.335938 -17.382812 51.988281 -19.269531 54.3125 -21.65625 L 64.09375 -11.296875 C 60.519531 -7.648438 56.300781 -4.726562 51.4375 -2.53125 C 46.570312 -0.34375 41.722656 0.75 36.890625 0.75 C 26.984375 0.75 18.734375 -2.476562 12.140625 -8.9375 C 5.554688 -15.40625 2.265625 -23.46875 2.265625 -33.125 C 2.265625 -42.601562 5.617188 -50.523438 12.328125 -56.890625 C 19.046875 -63.265625 27.425781 -66.453125 37.46875 -66.453125 Z M 37.46875 -66.453125 "/></g></g></g><g fill="#af2929" fill-opacity="1"><g transform="translate(239.565749, 225.151146)"><g><path d="M 67.390625 0 L 50.640625 0 L 50.640625 -25.609375 L 23.34375 -25.609375 L 23.34375 0 L 6.59375 0 L 6.59375 -65.890625 L 23.34375 -65.890625 L 23.34375 -38.78125 L 50.640625 -38.78125 L 50.640625 -65.890625 L 67.390625 -65.890625 Z M 67.390625 0 "/></g></g></g></svg>