<svg width="447" height="287" viewBox="0 0 447 287" fill="none" xmlns="http://www.w3.org/2000/svg">
<path fill-rule="evenodd" clip-rule="evenodd" d="M447 0H345L327.889 55H0L46.0112 217H116C96.67 217 81 232.67 81 252C81 271.33 96.67 287 116 287C135.33 287 151 271.33 151 252C151 232.67 135.33 217 116 217H261C241.67 217 226 232.67 226 252C226 271.33 241.67 287 261 287C280.33 287 296 271.33 296 252C296 232.67 280.33 217 261 217H325.146L355.606 90H355.985L365.492 51.1523L375 12.3047H440L447 0Z" fill="#7E8586"/>
</svg>
